<svg width="24" height="24" viewBox="0 0 24 24" fill="none" xmlns="http://www.w3.org/2000/svg">
  <defs>
    <linearGradient id="settingsGrad" x1="12" y1="2" x2="12" y2="22" gradientUnits="userSpaceOnUse">
      <stop offset="0%" stop-color="currentColor" stop-opacity="0.5"/>
      <stop offset="100%" stop-color="currentColor" stop-opacity="1"/>
    </linearGradient>
  </defs>
  <path d="M12 15C13.6569 15 15 13.6569 15 12C15 10.3431 13.6569 9 12 9C10.3431 9 9 10.3431 9 12C9 13.6569 10.3431 15 12 15Z" fill="url(#settingsGrad)" stroke="currentColor" stroke-width="1.5"/>
  <path d="M19.4 15C19.1274 15.6174 19.2597 16.3378 19.7 16.9L19.9 17.1C20.3 17.5 20.3 18.1 19.9 18.5L18.5 19.9C18.1 20.3 17.5 20.3 17.1 19.9L16.9 19.7C16.3378 19.2597 15.6174 19.1274 15 19.4C14.3826 19.6726 14 20.2869 14 20.96V21.2C14 21.8 13.6 22.2 13 22.2H11C10.4 22.2 10 21.8 10 21.2V20.96C10 20.2869 9.6174 19.6726 9 19.4C8.3826 19.1274 7.6622 19.2597 7.1 19.7L6.9 19.9C6.5 20.3 5.9 20.3 5.5 19.9L4.1 18.5C3.7 18.1 3.7 17.5 4.1 17.1L4.3 16.9C4.7403 16.3378 4.8726 15.6174 4.6 15C4.3274 14.3826 3.7131 14 3.04 14H2.8C2.2 14 1.8 13.6 1.8 13V11C1.8 10.4 2.2 10 2.8 10H3.04C3.7131 10 4.3274 9.6174 4.6 9C4.8726 8.3826 4.7403 7.6622 4.3 7.1L4.1 6.9C3.7 6.5 3.7 5.9 4.1 5.5L5.5 4.1C5.9 3.7 6.5 3.7 6.9 4.1L7.1 4.3C7.6622 4.7403 8.3826 4.8726 9 4.6C9.6174 4.3274 10 3.7131 10 3.04V2.8C10 2.2 10.4 1.8 11 1.8H13C13.6 1.8 14 2.2 14 2.8V3.04C14 3.7131 14.3826 4.3274 15 4.6C15.6174 4.8726 16.3378 4.7403 16.9 4.3L17.1 4.1C17.5 3.7 18.1 3.7 18.5 4.1L19.9 5.5C20.3 5.9 20.3 6.5 19.9 6.9L19.7 7.1C19.2597 7.6622 19.1274 8.3826 19.4 9C19.6726 9.6174 20.2869 10 20.96 10H21.2C21.8 10 22.2 10.4 22.2 11V13C22.2 13.6 21.8 14 21.2 14H20.96C20.2869 14 19.6726 14.3826 19.4 15Z" stroke="currentColor" stroke-width="1.5" stroke-linejoin="round"/>
  <circle cx="12" cy="12" r="2" fill="white" opacity="0.3"/>
</svg>